<?xml version="1.0" encoding="UTF-8" standalone="no"?>
<!DOCTYPE svg PUBLIC "-//W3C//DTD SVG 1.1//EN" "http://www.w3.org/Graphics/SVG/1.1/DTD/svg11.dtd">
<svg height="2.5956144189621395in" stroke-miterlimit="10" style="fill-rule:nonzero;clip-rule:evenodd;stroke-linecap:round;stroke-linejoin:round;" version="1.1" viewBox="0 0 791.727 186.884" width="10.99620577828284in" xml:space="preserve" xmlns="http://www.w3.org/2000/svg" xmlns:xlink="http://www.w3.org/1999/xlink">
<defs/>
<clipPath id="ArtboardFrame">
<rect height="186.884" width="791.727" x="0" y="0"/>
</clipPath>
<g clip-path="url(#ArtboardFrame)" id="Untitled">
<path d="M-7.58781 12.3611L147.063 12.3611L147.063 12.3611L147.063 167.012L147.063 167.012L-7.58781 167.012L-7.58781 167.012L-7.58781 12.3611L-7.58781 12.3611Z" fill="#cecece" fill-rule="nonzero" opacity="1" stroke="none"/>
<path d="M117.099 141.881L84.7192 141.881L84.7192 87.7532L117.099 87.7532L117.099 141.881Z" fill="#000000" fill-opacity="0.501961" fill-rule="nonzero" opacity="1" stroke="none"/>
<path d="M19.9593 60.2061L35.9076 60.2061L35.9076 130.282L19.9593 130.282L19.9593 60.2061Z" fill="#000000" fill-opacity="0.501961" fill-rule="nonzero" opacity="1" stroke="none"/>
<path d="M35.9076 133.665L90.5186 133.665L90.5186 147.68L35.9076 147.68L35.9076 133.665Z" fill="#000000" fill-opacity="0.501961" fill-rule="nonzero" opacity="1" stroke="none"/>
<path d="M52.7585 30.5754L110.431 42.834L107.014 58.9066L49.3422 46.648L52.7585 30.5754Z" fill="#000000" fill-opacity="0.501961" fill-rule="nonzero" opacity="1" stroke="none"/>
<path d="M51.6149 149.416L25.6997 128.43L34.2157 117.914L60.1308 138.9L51.6149 149.416Z" fill="#000000" fill-opacity="0.501961" fill-rule="nonzero" opacity="1" stroke="none"/>
<path d="M114.063 54.7562L114.333 70.2189L98.8706 70.4888L98.6007 55.0261L114.063 54.7562Z" fill="#000000" fill-opacity="0.501961" fill-rule="nonzero" opacity="1" stroke="none"/>
<path d="M116.028 100.727L69.1565 99.9086L69.359 88.3116L116.23 89.1297L116.028 100.727Z" fill="#000000" fill-opacity="0.501961" fill-rule="nonzero" opacity="1" stroke="none"/>
<path d="M48.1672 35.9851L57.903 46.0668L36.6967 66.5455L26.9609 56.4638L48.1672 35.9851Z" fill="#000000" fill-opacity="0.501961" fill-rule="nonzero" opacity="1" stroke="none"/>
<path d="M93.8267 131.567L76.0055 125.431L85.7607 97.1L103.582 103.236L93.8267 131.567Z" fill="#ffffff" fill-opacity="0.501961" fill-rule="nonzero" opacity="1" stroke="none"/>
<path d="M25.3129 126.084L17.2484 101.264L31.0373 96.7839L39.1018 121.604L25.3129 126.084Z" fill="#000000" fill-opacity="0.501961" fill-rule="nonzero" opacity="1" stroke="none"/>
<path d="M119.321 104.749L113.143 136.535L97.9621 133.584L104.14 101.799L119.321 104.749Z" fill="#000000" fill-opacity="0.501961" fill-rule="nonzero" opacity="1" stroke="none"/>
<path d="M99.3199 70.7067L96.1632 58.0457L110.231 54.5382L113.388 67.1992L99.3199 70.7067Z" fill="#000000" fill-opacity="0.501961" fill-rule="nonzero" opacity="1" stroke="none"/>
<path d="M132.407 15.6155L154.86 47.682L121.606 70.9668L99.1528 38.9003L132.407 15.6155Z" fill="#ffffff" fill-opacity="0.501961" fill-rule="nonzero" opacity="1" stroke="none"/>
<path d="M37.444 64.4094L30.2094 98.4454L16.9732 95.6319L24.2077 61.5959L37.444 64.4094Z" fill="#000000" fill-opacity="0.501961" fill-rule="nonzero" opacity="1" stroke="none"/>
<path d="M91.6461 38.9122L90.0991 49.9195L63.7772 46.2202L65.3242 35.2129L91.6461 38.9122Z" fill="#000000" fill-opacity="0.501961" fill-rule="nonzero" opacity="1" stroke="none"/>
<path d="M52.0162 36.4261L63.5827 41.3358L59.4283 51.1228L47.8618 46.2131L52.0162 36.4261Z" fill="#000000" fill-opacity="0.501961" fill-rule="nonzero" opacity="1" stroke="none"/>
<path d="M37.8054 39.473L33.9451 17.5797L61.0737 12.7962L64.9341 34.6895L37.8054 39.473Z" fill="#ffffff" fill-opacity="0.501961" fill-rule="nonzero" opacity="1" stroke="none"/>
<path d="M54.2016 138.79L92.0094 133.476L93.4891 144.005L55.6813 149.319L54.2016 138.79Z" fill="#000000" fill-opacity="0.501961" fill-rule="nonzero" opacity="1" stroke="none"/>
<path d="M85.195 134.984L67.0544 119.762L85.6933 97.5495L103.834 112.771L85.195 134.984Z" fill="#ffffff" fill-opacity="0.501961" fill-rule="nonzero" opacity="1" stroke="none"/>
<path d="M92.1659 146.101L101.796 134.624L107.719 139.594L98.0893 151.071L92.1659 146.101Z" fill="#ffffff" fill-opacity="0.501961" fill-rule="nonzero" opacity="1" stroke="none"/>
<path d="M118.456 139.593L116.33 147.529L105.593 144.652L107.72 136.716L118.456 139.593Z" fill="#000000" fill-opacity="0.501961" fill-rule="nonzero" opacity="1" stroke="none"/>
<path d="M30.9224 139.576L1.59549 150.834L-14.6847 108.423L14.6423 97.165L30.9224 139.576Z" fill="#ffffff" fill-opacity="0.501961" fill-rule="nonzero" opacity="1" stroke="none"/>
<path d="M46.1396 38.7045L54.7091 47.8943L32.4417 68.6589L23.8722 59.4692L46.1396 38.7045Z" fill="#000000" fill-opacity="0.501961" fill-rule="nonzero" opacity="1" stroke="none"/>
<path d="M88.5395 87.7599L50.4124 85.7617L52.3853 48.1173L90.5123 50.1155L88.5395 87.7599Z" fill="#ffffff" fill-opacity="0.501961" fill-rule="nonzero" opacity="1" stroke="none"/>
<path d="M52.0217 180.29L-10.5279 149.783L2.39543 123.286L64.945 153.794L52.0217 180.29Z" fill="#ffffff" fill-opacity="0.501961" fill-rule="nonzero" opacity="1" stroke="none"/>
<path d="M111.014 53.4972L101.636 63.9125L84.0381 48.0669L93.4161 37.6516L111.014 53.4972Z" fill="#000000" fill-opacity="0.501961" fill-rule="nonzero" opacity="1" stroke="none"/>
<path d="M69.1014 112.098L34.7936 112.697L34.1273 74.5236L68.4351 73.9247L69.1014 112.098Z" fill="#ffffff" fill-opacity="0.501961" fill-rule="nonzero" opacity="1" stroke="none"/>
<path d="M104.051 88.2365L116.616 88.2365L116.616 132.215L104.051 132.215L104.051 88.2365Z" fill="#000000" fill-opacity="0.501961" fill-rule="nonzero" opacity="1" stroke="none"/>
<path d="M37.8819 30.0197L21.7692 69.8999L-10.0453 57.0459L6.06733 17.1657L37.8819 30.0197Z" fill="#ffffff" fill-opacity="0.501961" fill-rule="nonzero" opacity="1" stroke="none"/>
<path d="M-7.58781 12.3611L18.0262 12.3611L18.0262 133.182L-7.58781 133.182L-7.58781 12.3611Z" fill="#ffffff" fill-opacity="0.501961" fill-rule="nonzero" opacity="1" stroke="none"/>
<path d="M74.5426 93.0005L86.6801 85.9929L92.4795 96.0378L80.342 103.045L74.5426 93.0005Z" fill="#000000" fill-opacity="0.501961" fill-rule="nonzero" opacity="1" stroke="none"/>
<path d="M102.701 112.307L92.0705 112.493L91.8681 100.895L102.499 100.71L102.701 112.307Z" fill="#ffffff" fill-opacity="0.501961" fill-rule="nonzero" opacity="1" stroke="none"/>
<path d="M77.7329 137.06L47.5824 132.822L52.5596 97.4073L82.7101 101.645L77.7329 137.06Z" fill="#ffffff" fill-opacity="0.501961" fill-rule="nonzero" opacity="1" stroke="none"/>
<path d="M94.7745 172.28L81.8419 147.957L103.178 136.613L116.11 160.935L94.7745 172.28Z" fill="#ffffff" fill-opacity="0.501961" fill-rule="nonzero" opacity="1" stroke="none"/>
<path d="M109.082 130.607L94.1473 138.548L89.8364 130.44L104.771 122.499L109.082 130.607Z" fill="#000000" fill-opacity="0.501961" fill-rule="nonzero" opacity="1" stroke="none"/>
<path d="M104.155 37.0444L-8.17547 29.1894L-6.72585 8.4589L105.605 16.3138L104.155 37.0444Z" fill="#ffffff" fill-opacity="0.501961" fill-rule="nonzero" opacity="1" stroke="none"/>
<path d="M94.6698 56.9578L105.448 76.4015L83.4678 88.5851L72.69 69.1414L94.6698 56.9578Z" fill="#ffffff" fill-opacity="0.501961" fill-rule="nonzero" opacity="1" stroke="none"/>
<path d="M47.9794 131.861L36.5544 140.787L26.7356 128.22L38.1606 119.294L47.9794 131.861Z" fill="#000000" fill-opacity="0.501961" fill-rule="nonzero" opacity="1" stroke="none"/>
<path d="M47.3742 38.5433L79.5128 34.5972L80.9852 46.5892L48.8466 50.5353L47.3742 38.5433Z" fill="#000000" fill-opacity="0.501961" fill-rule="nonzero" opacity="1" stroke="none"/>
<path d="M17.3471 97.5399L29.5095 91.6079L34.1703 101.164L22.0079 107.096L17.3471 97.5399Z" fill="#000000" fill-opacity="0.501961" fill-rule="nonzero" opacity="1" stroke="none"/>
<path d="M117.099 120.133L117.099 91.1362L147.063 91.1362L147.063 120.133L117.099 120.133Z" fill="#ffffff" fill-opacity="0.501961" fill-rule="nonzero" opacity="1" stroke="none"/>
<path d="M125.58 99.9236L106.63 77.3404L138.099 50.9353L157.048 73.5185L125.58 99.9236Z" fill="#ffffff" fill-opacity="0.501961" fill-rule="nonzero" opacity="1" stroke="none"/>
<path d="M147.024 166.271L118.032 166.777L117.138 115.557L146.13 115.051L147.024 166.271Z" fill="#ffffff" fill-opacity="0.501961" fill-rule="nonzero" opacity="1" stroke="none"/>
<path d="M23.7627 64.7565L36.1734 66.7222L30.6544 101.567L18.2438 99.6018L23.7627 64.7565Z" fill="#000000" fill-opacity="0.501961" fill-rule="nonzero" opacity="1" stroke="none"/>
<path d="M92.3108 38.5926L114.335 3.34579L133.188 15.1264L111.164 50.3733L92.3108 38.5926Z" fill="#ffffff" fill-opacity="0.501961" fill-rule="nonzero" opacity="1" stroke="none"/>
<path d="M70.2177 99.5217L69.7624 90.8345L85.6889 89.9999L86.1441 98.687L70.2177 99.5217Z" fill="#000000" fill-opacity="0.501961" fill-rule="nonzero" opacity="1" stroke="none"/>
<path d="M23.5797 122.722L19.9955 111.691L34.7036 106.912L38.2879 117.943L23.5797 122.722Z" fill="#000000" fill-opacity="0.501961" fill-rule="nonzero" opacity="1" stroke="none"/>
<path d="M1.59456 148.647L146.579 148.647L146.579 166.528L1.59456 166.528L1.59456 148.647Z" fill="#ffffff" fill-opacity="0.501961" fill-rule="nonzero" opacity="1" stroke="none"/>
<path d="M94.5363 127.71L72.1447 116.301L80.7015 99.5074L103.093 110.917L94.5363 127.71Z" fill="#ffffff" fill-opacity="0.501961" fill-rule="nonzero" opacity="1" stroke="none"/>
<path d="M50.037 146.394L37.1188 139.812L43.0427 128.185L55.961 134.768L50.037 146.394Z" fill="#000000" fill-opacity="0.501961" fill-rule="nonzero" opacity="1" stroke="none"/>
</g>
<g id="Layer-1">
<text fill="#2a0000" font-family="Helvetica" font-size="150" opacity="1" stroke="none" text-anchor="start" transform="matrix(1 0 0 1 125.014 0)" x="0" y="0">
<tspan textLength="658.594" x="0" y="146">eometrize</tspan>
</text>
</g>
</svg>
